<?xml version="1.0" standalone="no"?>
<!DOCTYPE svg PUBLIC "-//W3C//DTD SVG 20010904//EN"
 "http://www.w3.org/TR/2001/REC-SVG-20010904/DTD/svg10.dtd">
<svg version="1.0" xmlns="http://www.w3.org/2000/svg"
 width="550.000000pt" height="550.000000pt" viewBox="0 0 550.000000 550.000000"
 preserveAspectRatio="xMidYMid meet">
<metadata>
Created by potrace 1.11, written by Peter Selinger 2001-2013
</metadata>
<g transform="translate(0.000000,550.000000) scale(0.100000,-0.100000)"
fill="#000000" stroke="none">
<path d="M4765 5044 l-729 -244 -101 49 c-241 118 -498 196 -765 232 -141 20
-498 17 -640 -4 -261 -39 -483 -109 -725 -226 -477 -233 -854 -602 -1097
-1077 l-52 -101 -313 -103 c-172 -57 -311 -105 -309 -107 2 -2 112 -35 245
-72 133 -38 243 -70 246 -73 2 -2 -2 -28 -10 -58 -70 -269 -88 -661 -45 -938
110 -697 484 -1277 1080 -1676 111 -74 377 -205 509 -251 255 -87 454 -123
726 -132 227 -7 373 5 563 43 1089 221 1902 1176 1934 2274 l3 95 -1076 5
-1076 5 121 97 c67 54 162 130 211 171 50 40 155 126 235 191 80 65 223 181
319 259 96 78 214 174 261 212 47 39 166 135 264 215 98 80 198 160 222 178
l43 34 56 -86 c31 -47 59 -86 63 -86 4 0 13 4 21 9 12 8 3 27 -44 102 l-58 92
34 28 c37 31 30 36 -22 15 l-34 -14 -62 79 -63 78 318 232 c174 128 308 230
297 227 -11 -3 -193 -67 -405 -141 l-385 -134 -37 31 c-20 17 -36 33 -37 36 0
3 113 87 252 187 139 100 367 266 507 369 140 102 264 192 274 200 11 7 18 15
15 17 -2 3 -332 -105 -734 -239z m470 97 c-6 -4 -98 -72 -205 -149 -210 -152
-536 -390 -585 -428 l-31 -23 -104 78 c-58 42 -131 94 -163 113 l-58 36 568
190 c312 105 572 191 578 191 6 1 6 -2 0 -8z m-1990 -120 c146 -25 279 -59
415 -106 107 -38 300 -124 300 -134 0 -7 -3230 -1085 -3235 -1080 -2 2 22 49
52 104 305 554 787 951 1382 1139 122 38 324 81 456 96 138 15 493 5 630 -19z
m925 -360 c30 -19 88 -60 128 -91 l73 -55 -23 -19 c-13 -10 -110 -82 -216
-159 -106 -76 -192 -141 -190 -142 3 -3 57 15 397 134 l175 61 58 -62 c32 -34
55 -65 50 -69 -4 -4 -164 -120 -355 -259 -191 -139 -346 -254 -345 -256 2 -1
170 55 373 126 203 71 371 127 373 125 2 -2 -52 -47 -119 -101 -67 -55 -201
-163 -298 -242 -97 -79 -203 -165 -236 -192 -33 -26 -128 -104 -211 -172 -84
-67 -221 -179 -305 -248 -85 -68 -215 -174 -289 -234 -74 -61 -137 -111 -139
-113 -10 -7 -6 -963 4 -963 6 0 143 38 305 84 162 46 296 83 298 81 1 -1 -42
-40 -95 -86 -118 -101 -342 -296 -555 -482 -86 -75 -159 -137 -162 -137 -3 0
-97 80 -208 178 -112 97 -295 256 -406 351 -111 96 -200 176 -199 177 1 1 135
-36 297 -82 162 -46 299 -84 305 -84 7 0 9 157 7 483 l-2 482 -403 135 -402
135 490 3 490 3 -690 155 c-379 85 -798 178 -930 208 -132 29 -241 52 -243 51
-2 -2 15 -38 38 -80 23 -42 41 -78 39 -80 -4 -4 -449 121 -456 129 -4 4 37
124 77 226 l21 56 1667 556 1667 556 45 -26 c25 -14 70 -41 100 -61z m865
-100 c-23 -20 -358 -261 -364 -261 -13 0 -105 100 -98 106 7 7 445 162 462
163 6 1 6 -2 0 -8z m-592 -109 l27 -28 -122 -42 c-67 -23 -123 -41 -124 -39
-3 3 178 135 187 136 3 1 17 -12 32 -27z m272 -287 c27 -35 51 -67 52 -72 3
-8 -556 -207 -563 -201 -3 4 447 336 456 337 3 0 27 -28 55 -64z m-4128 -672
c-22 -65 -42 -120 -44 -122 -1 -2 -82 18 -178 44 -96 27 -173 51 -170 53 5 5
408 140 421 141 7 1 -5 -48 -29 -116z m1083 -309 c305 -69 589 -132 630 -140
41 -9 82 -20 90 -25 9 -6 -151 -8 -402 -7 -229 2 -415 2 -413 0 2 -2 209 -72
461 -157 253 -84 487 -163 522 -175 l62 -22 0 -435 0 -435 -27 7 c-16 3 -185
51 -377 106 -192 55 -350 98 -352 97 -1 -2 84 -77 188 -168 105 -91 266 -230
358 -310 92 -80 231 -200 309 -268 78 -68 146 -122 150 -120 8 3 108 89 596
513 94 81 222 193 287 249 64 55 115 102 114 103 -1 2 -169 -44 -372 -102
-203 -58 -372 -105 -376 -105 -5 0 -8 189 -8 420 l0 420 1066 0 1067 0 -7 -92
c-26 -339 -99 -613 -241 -903 -232 -476 -600 -846 -1075 -1082 -784 -390
-1713 -317 -2430 191 -522 370 -874 942 -972 1580 -28 182 -30 515 -5 676 29
185 58 300 76 300 9 0 139 -36 289 -79 149 -43 272 -77 272 -74 0 2 -20 39
-45 83 -25 44 -45 82 -45 86 0 3 12 3 28 -1 15 -4 277 -63 582 -131z"/>
<path d="M2613 3786 c-386 -121 -701 -221 -699 -223 4 -5 683 -183 707 -186
15 -2 140 108 459 402 80 74 167 154 193 179 27 24 47 45 45 46 -2 1 -319 -97
-705 -218z m511 96 c-6 -4 -118 -106 -249 -227 -131 -121 -247 -221 -259 -223
-18 -2 -550 135 -536 138 3 0 239 74 525 164 286 90 522 161 525 159 2 -2 0
-7 -6 -11z"/>
</g>
</svg>
